Coordinates
version=1
nRows=4
nColumns=63
inDegrees=yes

Units are S.I. units (second, meters, Newtons, ...)
If the header above contains a line with 'inDegrees', this indicates whether rotational values are in degrees (yes) or radians (no).

endheader
time	pelvis_tilt	pelvis_list	pelvis_rotation	pelvis_tx	pelvis_ty	pelvis_tz	hip_flexion_r	hip_adduction_r	hip_rotation_r	knee_angle_r	knee_angle_r_beta	ankle_angle_r	subtalar_angle_r	mtp_angle_r	hip_flexion_l	hip_adduction_l	hip_rotation_l	knee_angle_l	knee_angle_l_beta	ankle_angle_l	subtalar_angle_l	mtp_angle_l	L5_S1_Flex_Ext	L5_S1_Lat_Bending	L5_S1_axial_rotation	L4_L5_Flex_Ext	L4_L5_Lat_Bending	L4_L5_axial_rotation	L3_L4_Flex_Ext	L3_L4_Lat_Bending	L3_L4_axial_rotation	L2_L3_Flex_Ext	L2_L3_Lat_Bending	L2_L3_axial_rotation	L1_L2_Flex_Ext	L1_L2_Lat_Bending	L1_L2_axial_rotation	L1_T12_Flex_Ext	L1_T12_Lat_Bending	L1_T12_axial_rotation	Abs_r3	Abs_r2	Abs_r1	Abs_t1	Abs_t2	neck_flexion	neck_bending	neck_rotation	arm_flex_r	arm_add_r	arm_rot_r	elbow_flex_r	pro_sup_r	wrist_flex_r	wrist_dev_r	arm_flex_l	arm_add_l	arm_rot_l	elbow_flex_l	pro_sup_l	wrist_flex_l	wrist_dev_l
      3.75000000	    -61.63364570	     -7.18990430	      0.26490504	     -0.29690928	      1.13355684	      0.03804969	    106.68387999	     -7.54862282	    -12.19521429	     62.75796208	      1.09533307	     19.98412012	     -3.11722570	      0.00000000	    101.86010476	     -3.37561188	      7.47472240	     84.19090256	      1.46940845	      9.17457534	      0.25032264	      0.00000000	     -0.09018834	      1.50193122	      0.11258198	     -0.16748876	      1.99756853	      0.11961835	     -0.14817042	      3.65179558	      0.11961835	     -0.10307625	      3.65179558	      0.09850923	     -0.08374889	      3.06273815	      0.09147286	     -0.05153362	      2.32649147	      0.08443648	     -0.64420629	     16.99014639	      0.62614718	      0.00000000	      0.00000000	      0.00000000	      0.00000000	      0.00000000	     66.25451378	    -10.42646344	      6.10626817	     39.06060393	     55.71266928	      0.00000000	      4.99999502	     61.21319494	     -1.51873150	     -6.59308439	     37.40101886	     55.35465862	      0.00000000	      4.99999502
      3.75800000	    -61.60517119	     -7.10541031	      0.61795369	     -0.29676495	      1.13388428	      0.03776645	    105.73811234	     -7.63852479	    -12.16416333	     61.01400387	      1.06489526	     19.14358018	     -3.25277115	      0.00000000	    102.56421171	     -3.03005099	      7.44760988	     85.81130024	      1.49768972	      9.53193186	      0.14994874	      0.00000000	     -0.09475433	      1.48890443	      0.03611912	     -0.17596826	      1.98024289	      0.03837657	     -0.15567188	      3.62012223	      0.03837657	     -0.10829472	      3.62012223	      0.03160423	     -0.08798887	      3.03617391	      0.02934679	     -0.05414262	      2.30631296	      0.02708934	     -0.67682067	     16.84278470	      0.20088373	      0.00000000	      0.00000000	      0.00000000	      0.00000000	      0.00000000	     66.21785855	    -10.37060184	      6.15502591	     39.13539019	     55.75610060	      0.00000000	      4.99999505	     61.23480500	     -1.61524276	     -6.58097884	     37.39083790	     55.39277602	      0.00000000	      4.99999505
      3.76700000	    -61.67134204	     -7.22201503	      0.67624385	     -0.29664861	      1.13421087	      0.03773472	    104.73886484	     -7.44195080	    -12.39454761	     59.04025763	      1.03044689	     18.06700803	     -3.80526606	      0.00000000	    103.43405615	     -2.94935432	      7.62069648	     87.44453292	      1.52619501	      9.87987903	      0.05799346	      0.00000000	     -0.08882258	      1.50280472	      0.03317759	     -0.16495241	      1.99873028	      0.03525119	     -0.14592662	      3.65391939	      0.03525119	     -0.10151533	      3.65391939	      0.02903039	     -0.08248065	      3.06451938	      0.02695679	     -0.05075322	      2.32784451	      0.02488319	     -0.63445080	     17.00002754	      0.18452379	      0.00000000	      0.00000000	      0.00000000	      0.00000000	      0.00000000	     66.20744482	    -10.45455418	      6.13376527	     39.17326598	     55.82329076	      0.00000000	      4.99999512	     61.21673999	     -1.58061846	     -6.47519476	     37.43749398	     55.47305857	      0.00000000	      4.99999512
      3.77500000	    -61.68070899	     -7.41581021	      0.66529398	     -0.29634700	      1.13432062	      0.03785722	    103.74271405	     -7.19351642	    -12.81600220	     57.25265773	      0.99924738	     16.48081566	     -4.96664742	      0.00000000	    104.31650262	     -2.90538927	      7.95209622	     89.16454090	      1.55621481	     10.30078118	      0.02965393	      0.00000000	     -0.08893827	      1.52615543	      0.04211886	     -0.16516727	      2.02978672	      0.04475129	     -0.14611669	      3.71069432	      0.04475129	     -0.10164755	      3.71069432	      0.03685400	     -0.08258808	      3.11213616	      0.03422158	     -0.05081933	      2.36401476	      0.03158915	     -0.63527720	     17.26417548	      0.23425248	      0.00000000	      0.00000000	      0.00000000	      0.00000000	      0.00000000	     66.17620764	    -10.53748656	      6.10646304	     39.30973121	     55.97682287	      0.00000000	      4.99999527	     61.17866273	     -1.54860457	     -6.36451842	     37.44863976	     55.63930065	      0.00000000	      4.99999527
